# xmcd
#
# Track frame offsets:
# 150
# 13097
# 29973
# 47223
# 57065
# 71051
# 82942
# 94667
# 105869
# 120915
# 135107
# 146663
# 157115
# 172718
# 186104
# 198330
# 212317
# 225042
# 236475
# 251824
#
# Disc length: 3544 seconds
#
#
# Revision: 0
# Processed by: cddbd v1.5.1PL2 Copyright (c) Steve Scherf et al.
# Submitted via: FreeRIP 2.944 
#
DISCID=f90dd614
DTITLE=Löschzug-Chörli Interlaken - Heissi Söngs
DYEAR=2001
DGENRE=Folklore
TTITLE0=Mier si vo der Füürwehr
TTITLE1=Marsch Löschzug 1
TTITLE2=De Colores
TTITLE3=in der Lenk
TTITLE4=Hydranten Fox
TTITLE5=Gueti Fründe
TTITLE6=Gruss an Bern
TTITLE7=Casa mia piccolina
TTITLE8=E gmüetlich Rundi
TTITLE9=Strahlende Augen
TTITLE10=Machts ächt öppis
TTITLE11=Und spann den Schirm
TTITLE12=Am Stammtisch
TTITLE13=Am beschte isch e Füürwehrmaa
TTITLE14=Im Kloster von Santa Martina
TTITLE15=Alle Freunde an Bord
TTITLE16=Mit em Beat uf dr Gemsjagd
TTITLE17=Lumpensammler
TTITLE18=Furchtlos und Treu
TTITLE19=Bring mir Glück Schornsteinfeger
EXTD=
EXTT0=
EXTT1=
EXTT2=
EXTT3=
EXTT4=
EXTT5=
EXTT6=
EXTT7=
EXTT8=
EXTT9=
EXTT10=
EXTT11=
EXTT12=
EXTT13=
EXTT14=
EXTT15=
EXTT16=
EXTT17=
EXTT18=
EXTT19=
PLAYORDER=
